<svg xmlns="http://www.w3.org/2000/svg" version="1.0" width="125pt" height="125pt" viewBox="0 0 475.000000 462.000000" preserveAspectRatio="xMidYMid meet">
<g transform="translate(0.000000,462.000000) scale(0.100000,-0.100000)" fill="#507d34">
<path d="M1760 3994 c-42 -18 -76 -49 -98 -89 -15 -27 -17 -90 -20 -567 l-3 -538 -532 0 c-597 0 -569 3 -632 -74 l-30 -38 -3 -194 -3 -194 608 0 c527 0 611 -2 630 -15 12 -8 63 -96 114 -195 51 -99 95 -180 98 -180 3 0 62 184 130 408 68 224 130 422 137 439 25 64 108 66 133 5 6 -15 65 -205 131 -422 66 -217 124 -406 128 -419 7 -22 21 0 108 164 70 135 106 193 124 202 19 10 167 13 628 13 l604 0 -4 188 c-3 175 -5 189 -26 224 -13 20 -40 47 -60 60 l-37 23 -540 5 -540 5 -5 541 -5 540 -27 41 c-16 24 -44 49 -70 62 -43 20 -56 21 -474 21 -360 -1 -435 -3 -464 -16z"/>
<path d="M2202 2418 c-12 -35 -64 -205 -117 -378 -53 -173 -101 -330 -107 -348 -17 -55 -86 -74 -121 -34 -8 10 -69 124 -137 255 l-122 237 -579 0 -579 0 0 -179 c0 -191 5 -219 48 -264 61 -64 35 -62 619 -65 l532 -3 3 -532 c3 -474 5 -535 20 -562 22 -40 66 -81 101 -94 18 -7 180 -11 463 -11 407 0 437 1 472 19 42 22 63 43 86 88 14 28 16 93 16 562 l0 530 533 3 c517 3 533 4 572 24 22 11 54 40 70 63 l30 43 3 189 4 189 -582 -2 -582 -3 -128 -244 c-134 -257 -153 -281 -202 -262 -13 5 -29 15 -35 22 -6 8 -66 194 -133 414 -67 220 -123 401 -125 403 -2 2 -12 -25 -23 -60z"/>
</g>
</svg>